<svg width="28" height="28" viewBox="0 0 28 28" fill="none" xmlns="http://www.w3.org/2000/svg">
<path d="M3.05019 27.4766C2.35241 28.1745 1.2211 28.1745 0.523337 27.4766C-0.174445 26.7789 -0.174445 25.6475 0.523337 24.9498L11.4732 14L0.523337 3.05019C-0.174445 2.35241 -0.174445 1.2211 0.523337 0.523337C1.2211 -0.174445 2.35241 -0.174445 3.05019 0.523337L14 11.4732L24.9498 0.523337C25.6475 -0.174445 26.7789 -0.174445 27.4766 0.523337C28.1745 1.2211 28.1745 2.35241 27.4766 3.05019L16.5267 14L27.4766 24.9498C28.1745 25.6475 28.1745 26.7789 27.4766 27.4766C26.7789 28.1745 25.6475 28.1745 24.9498 27.4766L14 16.5267L3.05019 27.4766Z" fill="white"/>
</svg>
