<svg width="37" height="38" viewBox="0 0 37 38" fill="none" xmlns="http://www.w3.org/2000/svg">
<g clip-path="url(#clip0_58_209)">
<path d="M20.8921 37.3706H14.9853C13.9987 37.3706 13.1961 36.568 13.1961 35.5814V22.2582H9.74991C8.76328 22.2582 7.96069 21.4553 7.96069 20.469V14.76C7.96069 13.7734 8.76328 12.9708 9.74991 12.9708H13.1961V10.1119C13.1961 7.27723 14.0862 4.86553 15.7699 3.13794C17.4612 1.40247 19.8247 0.485352 22.6051 0.485352L27.1099 0.492668C28.0949 0.494357 28.8961 1.29694 28.8961 2.28189V7.58257C28.8961 8.5692 28.0938 9.37178 27.1074 9.37178L24.0744 9.37291C23.1493 9.37291 22.9138 9.55836 22.8634 9.6152C22.7804 9.70948 22.6816 9.97598 22.6816 10.7119V12.9705H26.8795C27.1955 12.9705 27.5017 13.0484 27.7648 13.1953C28.3324 13.5125 28.6853 14.1122 28.6853 14.7603L28.683 20.4693C28.683 21.4553 27.8804 22.2579 26.8938 22.2579H22.6816V35.5814C22.6816 36.568 21.8788 37.3706 20.8921 37.3706ZM15.3585 35.2082H20.519V21.2901C20.519 20.6314 21.0551 20.0956 21.7136 20.0956H26.5207L26.5226 15.1331H21.7133C21.0548 15.1331 20.519 14.5973 20.519 13.9385V10.7119C20.519 9.86707 20.6048 8.90633 21.2425 8.18422C22.013 7.31128 23.2273 7.21054 24.0738 7.21054L26.7337 7.20941V2.65448L22.6034 2.64772C18.1351 2.64772 15.3585 5.508 15.3585 10.1119V13.9385C15.3585 14.597 14.8226 15.1331 14.1641 15.1331H10.1231V20.0956H14.1641C14.8226 20.0956 15.3585 20.6314 15.3585 21.2901V35.2082Z" fill="white"/>
</g>
<defs>
<clipPath id="clip0_58_209">
<rect width="36.8132" height="36.8852" fill="white" transform="translate(0 0.557373)"/>
</clipPath>
</defs>
</svg>
