<?xml version="1.0" encoding="UTF-8"?>
<svg id="Calque_1" xmlns="http://www.w3.org/2000/svg" xmlns:xlink="http://www.w3.org/1999/xlink" version="1.1" viewBox="0 0 24 24">
  <!-- Generator: Adobe Illustrator 29.2.0, SVG Export Plug-In . SVG Version: 2.1.0 Build 108)  -->
  <defs>
    <style>
      .st0 {
        fill: none;
      }

      .st1 {
        fill: #fff;
      }

      .st2 {
        clip-path: url(#clippath);
      }
    </style>
    <clipPath id="clippath">
      <rect class="st0" x="1.2" y="1" width="21.6" height="21.6"/>
    </clipPath>
  </defs>
  <g class="st2">
    <g>
      <path class="st1" d="M16.6,12.8c.6-.4.9-1.1.9-1.9v-2.7c0-1.5-1.1-2.4-2.6-2.4H6.4v2h2.1v10.1h2.2V7.7h1.2s2.3,0,2.3,0h0s.4,0,.4,0c.4,0,.7.2.7.6v2.4c0,.4-.3.6-.7.6h-2.8v6.5h2.2v-4.6h.6l.9,4.6h2.2l-1.1-5.1h0Z"/>
      <path class="st1" d="M12,22.6c-6,0-10.8-4.9-10.8-10.8S6.1,1,12,1s10.8,4.9,10.8,10.8-4.9,10.8-10.8,10.8ZM12,2.7C7,2.7,2.9,6.8,2.9,11.8s4.1,9.1,9.1,9.1,9.1-4.1,9.1-9.1S17,2.7,12,2.7Z"/>
    </g>
  </g>
</svg>