<svg width="37" height="38" viewBox="0 0 37 38" fill="none" xmlns="http://www.w3.org/2000/svg">
<g clip-path="url(#clip0_58_205)">
<path d="M27.0154 0.557373H10.0992C4.59369 0.557373 0.114746 5.03632 0.114746 10.5419V27.4583C0.114746 32.9636 4.59369 37.4426 10.0992 37.4426H27.0157C32.521 37.4426 36.9999 32.9636 36.9999 27.4583V10.5419C36.9999 5.03632 32.521 0.557373 27.0154 0.557373ZM34.8376 27.4583C34.8376 31.7713 31.3286 35.2802 27.0154 35.2802H10.0992C5.78603 35.2802 2.27711 31.7713 2.27711 27.4583V10.5419C2.27711 6.22866 5.78603 2.71974 10.0992 2.71974H27.0157C31.3286 2.71974 34.8376 6.22866 34.8376 10.5419V27.4583Z" fill="white"/>
<path d="M18.5574 8.91443C12.9962 8.91443 8.47192 13.4387 8.47192 18.9999C8.47192 24.5612 12.9962 29.0854 18.5574 29.0854C24.1187 29.0854 28.6429 24.5612 28.6429 18.9999C28.6429 13.4387 24.1187 8.91443 18.5574 8.91443ZM18.5574 26.9231C14.1888 26.9231 10.6343 23.3689 10.6343 18.9999C10.6343 14.6313 14.1888 11.0768 18.5574 11.0768C22.9263 11.0768 26.4806 14.6313 26.4806 18.9999C26.4806 23.3689 22.9263 26.9231 18.5574 26.9231Z" fill="white"/>
<path d="M28.884 5.33264C27.2405 5.33264 25.9038 6.66963 25.9038 8.31279C25.9038 9.95623 27.2405 11.2932 28.884 11.2932C30.5274 11.2932 31.8644 9.95623 31.8644 8.31279C31.8644 6.66935 30.5274 5.33264 28.884 5.33264ZM28.884 9.13057C28.4331 9.13057 28.0662 8.76361 28.0662 8.31279C28.0662 7.86169 28.4331 7.49501 28.884 7.49501C29.3351 7.49501 29.702 7.86169 29.702 8.31279C29.702 8.76361 29.3351 9.13057 28.884 9.13057Z" fill="white"/>
</g>
<defs>
<clipPath id="clip0_58_205">
<rect width="36.8852" height="36.8852" fill="white" transform="translate(0.114746 0.557373)"/>
</clipPath>
</defs>
</svg>
