<svg width="36" height="36" viewBox="0 0 36 36" fill="none" xmlns="http://www.w3.org/2000/svg">
<g clip-path="url(#clip0_40_19)">
<path d="M25.5487 19.5525C26.4937 18.8662 27.045 17.7637 27.045 16.4475V11.9812C27.045 9.52875 25.29 7.92 22.6687 7.92H8.58374V11.2275H12.0937V28.0687H15.7162V11.2275H17.7862V11.205H21.5775V11.2275H22.3087C22.9725 11.2275 23.4 11.6325 23.4 12.2962V16.2112C23.4 16.875 22.9725 17.28 22.3087 17.28H21.24H17.6175V28.08H21.24V20.3962H22.2525L23.7487 28.08H27.405L25.5375 19.5525H25.5487Z" fill="white"/>
<path d="M18 36C8.0775 36 0 27.9225 0 18C0 8.0775 8.0775 0 18 0C27.9225 0 36 8.0775 36 18C36 27.9225 27.9225 36 18 36ZM18 2.88C9.66375 2.88 2.88 9.66375 2.88 18C2.88 26.3363 9.66375 33.12 18 33.12C26.3363 33.12 33.12 26.3363 33.12 18C33.12 9.66375 26.3363 2.88 18 2.88Z" fill="white"/>
</g>
<defs>
<clipPath id="clip0_40_19">
<rect width="36" height="36" fill="currentColor"/>
</clipPath>
</defs>
</svg>
