<svg width="37" height="28" viewBox="0 0 37 28" fill="none" xmlns="http://www.w3.org/2000/svg">
<path fill-rule="evenodd" clip-rule="evenodd" d="M23.0834 2.54167C23.0834 1.27602 22.0574 0.25 20.7917 0.25H2.45838C1.19269 0.25 0.16671 1.27602 0.16671 2.54167C0.16671 3.80731 1.19269 4.83333 2.45838 4.83333H20.7917C22.0574 4.83333 23.0834 3.80731 23.0834 2.54167ZM36.8334 14C36.8334 12.7343 35.8073 11.7083 34.5417 11.7083H2.45838C1.19269 11.7083 0.16671 12.7343 0.16671 14C0.16671 15.2657 1.19269 16.2917 2.45838 16.2917H34.5417C35.8073 16.2917 36.8334 15.2657 36.8334 14ZM23.0834 25.4583C23.0834 24.1926 22.0574 23.1667 20.7917 23.1667H2.45838C1.19269 23.1667 0.16671 24.1926 0.16671 25.4583C0.16671 26.724 1.19269 27.75 2.45838 27.75H20.7917C22.0574 27.75 23.0834 26.724 23.0834 25.4583Z" fill="white"/>
</svg>
