<svg width="94" height="69" viewBox="0 0 94 69" fill="none" xmlns="http://www.w3.org/2000/svg">
<path d="M18.0276 23.288C15.6756 23.288 14.1156 21.824 14.1156 19.64V17.144H17.1396V19.64C17.1396 20.192 17.4996 20.528 18.0276 20.528C18.5796 20.528 18.9396 20.192 18.9396 19.64V17.696C18.9396 15.704 14.1636 15.416 14.1636 11.552V9.536C14.1636 7.352 15.6996 5.912 18.0276 5.912C20.3556 5.912 21.9156 7.352 21.9156 9.536V11.768H18.8916V9.512C18.8916 9.008 18.5556 8.672 18.0276 8.672C17.5236 8.672 17.1876 8.984 17.1876 9.512V11.192C17.1876 13.208 21.9636 13.472 21.9636 17.336V19.64C21.9636 21.824 20.3796 23.288 18.0276 23.288ZM30.5383 23.288C28.1863 23.288 26.6023 21.824 26.6023 19.64V9.536C26.6023 7.376 28.1863 5.912 30.5383 5.912C32.8903 5.912 34.4743 7.376 34.4743 9.536V13.04H31.4503V9.56C31.4503 9.008 31.0903 8.672 30.5383 8.672C29.9863 8.672 29.6263 9.008 29.6263 9.56V19.64C29.6263 20.192 29.9863 20.528 30.5383 20.528C31.0903 20.528 31.4503 20.192 31.4503 19.64V15.92H34.4743V19.64C34.4743 21.824 32.8903 23.288 30.5383 23.288ZM39.3452 23V6.2H43.5452C45.7292 6.2 47.1932 7.544 47.1932 9.584V13.304C47.1932 14.408 46.7372 15.32 45.9452 15.896L47.5052 23H44.4572L43.2092 16.592H42.3692V23H39.3452ZM43.2572 8.96H42.3692V14H43.2572C43.8092 14 44.1692 13.664 44.1692 13.112V9.848C44.1692 9.296 43.8092 8.96 43.2572 8.96ZM55.7383 23.288C53.3863 23.288 51.8023 21.824 51.8023 19.64V9.536C51.8023 7.376 53.3863 5.912 55.7383 5.912C58.0903 5.912 59.6743 7.376 59.6743 9.536V19.64C59.6743 21.824 58.0903 23.288 55.7383 23.288ZM55.7383 20.528C56.2903 20.528 56.6503 20.192 56.6503 19.64V9.56C56.6503 9.008 56.2903 8.672 55.7383 8.672C55.1863 8.672 54.8263 9.008 54.8263 9.56V19.64C54.8263 20.192 55.1863 20.528 55.7383 20.528ZM64.5687 23V6.2H67.5927V20.24H70.1367V23H64.5687ZM74.5905 23V6.2H77.6145V20.24H80.1585V23H74.5905Z" fill="white"/>
<g clip-path="url(#clip0_43_32)">
<path d="M43.26 34V49.53V52.32H36L48.02 64.34L60.04 52.32H52.78V49.53V34H43.26Z" fill="white"/>
</g>
<defs>
<clipPath id="clip0_43_32">
<rect width="24.04" height="30.34" fill="white" transform="translate(36 38)"/>
</clipPath>
</defs>
</svg>
